<?xml version="1.0" encoding="utf-8"?>
<!-- Generator: Adobe Illustrator 26.1.0, SVG Export Plug-In . SVG Version: 6.00 Build 0)  -->
<svg version="1.1" id="Layer_1" xmlns="http://www.w3.org/2000/svg" xmlns:xlink="http://www.w3.org/1999/xlink" x="0px" y="0px"
	 viewBox="0 0 442.8 428" style="enable-background:new 0 0 442.8 428;" xml:space="preserve">
<style type="text/css">
	.st0{fill:#FF3343;}
</style>
<g>
	<path class="st0" d="M317.5,87.8L234.7,4.3c-1.4-1.4-3-2.4-4.8-3.2c-1.8-0.7-3.7-1.1-5.7-1.1c-3.9,0-7.6,1.6-10.3,4.3L4.3,213.1
		c-2.8,2.8-4.3,6.5-4.3,10.4c0,3.9,1.5,7.6,4.3,10.4l83.5,83.5c1.4,1.4,3,2.4,4.8,3.2c1.8,0.7,3.7,1.1,5.7,1.1
		c3.9,0,7.6-1.6,10.3-4.3l41.8-41.8l125.3-125.3l41.8-41.8c2.8-2.8,4.3-6.5,4.3-10.4C321.8,94.3,320.2,90.6,317.5,87.8L317.5,87.8z
		 M265.2,119.1l-10.5-10.5c-2.8-2.7-6.5-4.3-10.4-4.3c-3.9,0-7.6,1.5-10.4,4.3c-1.4,1.4-2.5,3-3.2,4.8c-0.8,1.8-1.1,3.7-1.1,5.7
		s0.4,3.9,1.1,5.7c0.8,1.8,1.8,3.4,3.2,4.8l10.5,10.5l-21,20.8l-31.3-31.3c-2.8-2.4-6.5-3.7-10.2-3.5c-3.7,0.1-7.2,1.7-9.9,4.3
		c-2.6,2.6-4.2,6.1-4.3,9.9c-0.1,3.7,1.1,7.3,3.5,10.2l31.3,31.3l-21,21l-10.3-10.5c-2.8-2.8-6.6-4.3-10.5-4.3
		c-3.9,0-7.7,1.6-10.5,4.3c-2.8,2.8-4.3,6.5-4.3,10.5c0,3.9,1.6,7.7,4.3,10.5l10.5,10.3l-20.8,21l-31.4-31.3
		c-2.8-2.8-6.5-4.3-10.4-4.3c-3.9,0-7.6,1.5-10.4,4.3c-2.8,2.8-4.3,6.5-4.3,10.4c0,3.9,1.5,7.6,4.3,10.4l31.3,31.3l-20.8,21
		l-62.7-62.7L223.5,35.6l62.7,62.7L265.2,119.1z"/>
	<path class="st0" d="M162.3,428H428c3.9,0,7.7-1.6,10.4-4.3c2.8-2.8,4.3-6.5,4.3-10.4V147.6c0-3.9-1.6-7.7-4.3-10.4
		c-2.8-2.8-6.5-4.3-10.4-4.3h-88.6c-3.9,0-7.7,1.6-10.4,4.3c-2.8,2.8-4.3,6.5-4.3,10.4v162.3H162.3c-3.9,0-7.7,1.6-10.4,4.3
		c-2.8,2.8-4.3,6.5-4.3,10.4v88.6c0,3.9,1.6,7.7,4.3,10.4C154.7,426.4,158.4,428,162.3,428L162.3,428z M177.1,339.4h29.5v14.8
		c0,3.9,1.6,7.7,4.3,10.4c2.8,2.8,6.5,4.3,10.4,4.3c3.9,0,7.7-1.6,10.4-4.3c2.8-2.8,4.3-6.5,4.3-10.4v-14.8h29.5v14.8
		c0,3.9,1.6,7.7,4.3,10.4c2.8,2.8,6.5,4.3,10.4,4.3c3.9,0,7.7-1.6,10.4-4.3c2.8-2.8,4.3-6.5,4.3-10.4v-14.8h29.5v14.8
		c0,3.9,1.6,7.7,4.3,10.4c2.8,2.8,6.5,4.3,10.4,4.3c3.9,0,7.7-1.6,10.4-4.3c2.8-2.8,4.3-6.5,4.3-10.4v-14.8H369
		c3.9,0,7.7-1.6,10.4-4.3c2.8-2.8,4.3-6.5,4.3-10.4c0-3.9-1.6-7.7-4.3-10.4c-2.8-2.8-6.5-4.3-10.4-4.3h-14.8v-29.5H369
		c3.9,0,7.7-1.6,10.4-4.3c2.8-2.8,4.3-6.5,4.3-10.4c0-3.9-1.6-7.7-4.3-10.4c-2.8-2.8-6.5-4.3-10.4-4.3h-14.8v-29.5H369
		c3.9,0,7.7-1.6,10.4-4.3c2.8-2.8,4.3-6.5,4.3-10.4c0-3.9-1.6-7.7-4.3-10.4c-2.8-2.8-6.5-4.3-10.4-4.3h-14.8v-29.5h59v236.1H177.1
		V339.4z"/>
</g>
</svg>
