<?xml version="1.0" encoding="utf-8"?>
<!-- Generator: Adobe Illustrator 26.1.0, SVG Export Plug-In . SVG Version: 6.00 Build 0)  -->
<svg version="1.1" id="Layer_1" xmlns="http://www.w3.org/2000/svg" xmlns:xlink="http://www.w3.org/1999/xlink" x="0px" y="0px"
	 viewBox="0 0 343.8 428" style="enable-background:new 0 0 343.8 428;" xml:space="preserve">
<g>
	<path d="M193.4,256.8h-86c-5.7,0-11.2,2.3-15.2,6.3c-4,4-6.3,9.5-6.3,15.1c0,5.7,2.3,11.1,6.3,15.1c4,4,9.5,6.3,15.2,6.3h86
		c5.7,0,11.2-2.3,15.2-6.3c4-4,6.3-9.5,6.3-15.1c0-5.7-2.3-11.1-6.3-15.1C204.6,259.1,199.1,256.8,193.4,256.8z M279.3,42.8H254
		c-4.4-12.5-12.6-23.3-23.5-31C219.6,4.2,206.7,0,193.4,0h-43c-13.3,0-26.3,4.2-37.1,11.8c-10.8,7.7-19,18.5-23.5,31H64.5
		c-17.1,0-33.5,6.8-45.6,18.8C6.8,73.6,0,90,0,107v256.8c0,17,6.8,33.4,18.9,45.4C31,421.2,47.4,428,64.5,428h214.9
		c17.1,0,33.5-6.8,45.6-18.8c12.1-12,18.9-28.4,18.9-45.4V107c0-17-6.8-33.4-18.9-45.4C312.8,49.6,296.4,42.8,279.3,42.8L279.3,42.8
		z M128.9,64.2c0-5.7,2.3-11.1,6.3-15.1c4-4,9.5-6.3,15.2-6.3h43c5.7,0,11.2,2.3,15.2,6.3c4,4,6.3,9.5,6.3,15.1v21.4h-86V64.2z
		 M300.8,363.8c0,5.7-2.3,11.1-6.3,15.1c-4,4-9.5,6.3-15.2,6.3H64.5c-5.7,0-11.2-2.3-15.2-6.3c-4-4-6.3-9.5-6.3-15.1V107
		c0-5.7,2.3-11.1,6.3-15.1c4-4,9.5-6.3,15.2-6.3H86V107c0,5.7,2.3,11.1,6.3,15.1c4,4,9.5,6.3,15.2,6.3h128.9
		c5.7,0,11.2-2.3,15.2-6.3c4-4,6.3-9.5,6.3-15.1V85.6h21.5c5.7,0,11.2,2.3,15.2,6.3c4,4,6.3,9.5,6.3,15.1V363.8z M236.4,171.2H107.4
		c-5.7,0-11.2,2.3-15.2,6.3c-4,4-6.3,9.5-6.3,15.1c0,5.7,2.3,11.1,6.3,15.1c4,4,9.5,6.3,15.2,6.3h128.9c5.7,0,11.2-2.3,15.2-6.3
		c4-4,6.3-9.5,6.3-15.1c0-5.7-2.3-11.1-6.3-15.1C247.5,173.5,242.1,171.2,236.4,171.2z"/>
</g>
</svg>
