<?xml version="1.0" encoding="utf-8"?>
<!-- Generator: Adobe Illustrator 26.1.0, SVG Export Plug-In . SVG Version: 6.00 Build 0)  -->
<svg version="1.1" id="Layer_1" xmlns="http://www.w3.org/2000/svg" xmlns:xlink="http://www.w3.org/1999/xlink" x="0px" y="0px"
	 viewBox="0 0 990 810" style="enable-background:new 0 0 990 810;" xml:space="preserve">
<path d="M990,97.1c-37.2,16.2-76.5,26.9-116.8,31.8c42.5-25.5,74.3-65.6,89.6-113c-39.9,23.9-83.6,40.7-129.2,49.8
	c-30.5-33.2-71.1-55.3-115.3-62.8c-44.3-7.6-89.9-0.1-129.5,21.2c-39.6,21.3-71.1,55.2-89.5,96.4c-18.4,41.2-22.7,87.4-12.1,131.3
	c-80.7-4.1-159.7-25.2-231.7-62C183.3,153,119.7,101.4,68.8,38.3c-17.9,31.4-27.3,66.9-27.2,103c0,33.6,8.1,66.6,23.9,96.2
	c15.7,29.6,38.5,54.9,66.2,73.4c-32.3-0.9-63.9-9.6-92.1-25.3v2.5c0.2,47,16.7,92.5,46.4,128.7c29.7,36.3,71.1,61.1,117,70.2
	c-17.6,5.4-36,8.2-54.5,8.5c-12.8-0.1-25.5-1.3-38.1-3.5c13.1,40.4,38.3,75.8,72.3,101.1c34,25.3,75,39.4,117.3,40.2
	c-71.4,56.5-159.6,87.3-250.5,87.5c-16.6,0.1-33.1-0.9-49.5-3c92.8,60.2,200.9,92.2,311.4,92c76.2,0.8,151.8-13.7,222.4-42.6
	c70.6-28.9,134.8-71.6,188.7-125.7c54-54.1,96.7-118.5,125.6-189.4c28.9-70.9,43.5-146.8,42.9-223.4c0-8.5,0-17.4,0-26.4
	C929.9,173.4,963.4,137.7,990,97.1L990,97.1z"/>
</svg>
