<?xml version="1.0" encoding="utf-8"?>
<!-- Generator: Adobe Illustrator 26.1.0, SVG Export Plug-In . SVG Version: 6.00 Build 0)  -->
<svg version="1.1" id="Layer_1" xmlns="http://www.w3.org/2000/svg" xmlns:xlink="http://www.w3.org/1999/xlink" x="0px" y="0px"
	 viewBox="0 0 392 428" style="enable-background:new 0 0 392 428;" xml:space="preserve">
<style type="text/css">
	.st0{fill:#FF3343;}
</style>
<g>
	<path class="st0" d="M290.3,255.6c-0.8,0.9-1.5,1.8-2.1,2.8c-0.7,0.9-1.2,1.9-1.6,3c-0.5,1.1-0.9,2.2-1.1,3.4
		c-0.7,3.4-0.3,6.9,1.1,10.1c0.8,2.2,2.1,4.2,3.7,5.9c1.7,1.7,3.7,2.9,5.9,3.7c2.1,1,4.4,1.5,6.8,1.4c2.3,0,4.6-0.4,6.8-1.2
		c2.1-1,4.1-2.3,5.9-3.9c1.7-1.7,3-3.6,3.8-5.8c0.9-2.2,1.3-4.5,1.3-6.8c0.1-2.3-0.4-4.6-1.4-6.7c-0.9-2.2-2.2-4.1-3.7-5.9
		c-1.7-1.6-3.6-2.9-5.8-3.8c-2.2-0.9-4.5-1.3-6.8-1.3c-2.3,0-4.6,0.5-6.8,1.4C294,252.7,292,254,290.3,255.6z M216.9,329.4
		c-0.7,0.9-1.2,1.9-1.6,3c-0.7,1-1.2,2.2-1.4,3.4c-0.5,2.3-0.5,4.6,0,6.9l1.1,3.2l1.6,3.2l2.1,2.7c3.5,3.3,8.2,5.2,13,5.2
		c2.3,0,4.7-0.4,6.8-1.3c2.2-0.9,4.1-2.2,5.8-3.8c1.6-1.7,2.8-3.7,3.7-5.9c1.1-2.7,1.5-5.6,1.2-8.5c-0.3-2.9-1.3-5.7-2.9-8.1
		c-1.6-2.4-3.8-4.4-6.4-5.8c-2.6-1.4-5.4-2.1-8.4-2.1c-4.7,0.1-9.2,1.9-12.7,5.2L216.9,329.4z M290.3,326.6
		c-1.6,1.7-2.9,3.7-3.7,5.9c-1.5,3.2-2,6.8-1.4,10.3l1.1,3.2c0.4,1.1,0.9,2.2,1.6,3.2c0.7,0.9,1.4,1.8,2.1,2.7
		c1.7,1.6,3.7,2.9,5.9,3.7c2.1,0.9,4.4,1.4,6.8,1.4c2.3,0,4.6-0.5,6.8-1.4c2.2-0.9,4.1-2.2,5.9-3.7c1.7-1.6,3.1-3.6,4-5.7
		c1-2.2,1.5-4.5,1.5-6.9c0.1-2.3-0.4-4.6-1.4-6.7c-0.9-2.2-2.2-4.1-3.7-5.9c-1.7-1.6-3.7-2.8-5.9-3.7c-2.1-0.9-4.4-1.4-6.8-1.4
		c-2.3,0-4.6,0.5-6.8,1.4C294,323.7,292,325,290.3,326.6z M215.3,274.9c0.9,2.2,2.1,4.2,3.7,5.9c3.4,3.2,7.9,5.1,12.7,5.2
		c2.9,0,5.8-0.7,8.4-2.1c2.6-1.4,4.8-3.4,6.4-5.8c1.6-2.4,2.6-5.2,2.9-8.1c0.3-2.9-0.1-5.8-1.2-8.5c-0.9-2.2-2.2-4.1-3.7-5.9
		c-1.7-1.6-3.6-2.9-5.8-3.8c-2.2-0.9-4.5-1.3-6.8-1.3c-4.7,0.1-9.2,1.9-12.7,5.2c-2.5,2.5-4.1,5.7-4.8,9.1
		C213.5,268.1,213.9,271.7,215.3,274.9z M290.3,184.5c-1.6,1.7-2.8,3.7-3.7,5.9c-1.4,3.2-1.7,6.8-1.1,10.2c0.7,3.4,2.3,6.6,4.8,9.1
		c1.7,1.6,3.7,2.9,5.9,3.7c2.1,0.9,4.4,1.4,6.8,1.4c2.3,0,4.6-0.5,6.8-1.4c2.2-0.9,4.1-2.2,5.9-3.7c1.7-1.7,3-3.6,3.8-5.8
		c0.9-2.2,1.3-4.5,1.3-6.8c0.1-2.3-0.4-4.6-1.4-6.7c-0.9-2.1-2.2-4.1-3.7-5.9c-2.5-2.5-5.7-4.1-9.1-4.8c-3.5-0.7-7-0.3-10.3,1.1
		C294,181.7,292,182.9,290.3,184.5z M71.3,197.1v142.1c0,4.7,1.9,9.2,5.2,12.6c3.3,3.3,7.9,5.2,12.6,5.2h71.3
		c4.7,0,9.3-1.9,12.6-5.2s5.2-7.8,5.2-12.6V197.1c0-4.7-1.9-9.2-5.2-12.6c-3.3-3.3-7.9-5.2-12.6-5.2H89.1c-4.7,0-9.3,1.9-12.6,5.2
		C73.2,187.9,71.3,192.4,71.3,197.1z M142.6,214.9v106.5h-35.6V214.9H142.6z M0,161.6v213.1c0,14.1,5.6,27.7,15.7,37.7
		S39.3,428,53.5,428h285.1c14.2,0,27.8-5.6,37.8-15.6c10-10,15.7-23.5,15.7-37.7V161.6c0-14.1-5.6-27.7-15.7-37.7
		c-10-10-23.6-15.6-37.8-15.6H53.5c-14.2,0-27.8,5.6-37.8,15.6C5.6,134,0,147.5,0,161.6z M338.6,143.9c4.7,0,9.3,1.9,12.6,5.2
		c3.3,3.3,5.2,7.9,5.2,12.6v213.1c0,4.7-1.9,9.2-5.2,12.6c-3.3,3.3-7.9,5.2-12.6,5.2H53.5c-4.7,0-9.3-1.9-12.6-5.2
		c-3.3-3.3-5.2-7.8-5.2-12.6V161.6c0-4.7,1.9-9.2,5.2-12.6c3.3-3.3,7.9-5.2,12.6-5.2H338.6z M216.9,187.4c-0.7,0.9-1.2,1.9-1.6,3
		c-0.5,1.1-0.9,2.2-1.1,3.4c-0.5,2.3-0.5,4.6,0,6.9l1.1,3.2l1.6,3.2l2.1,2.7c3.4,3.2,7.9,5.1,12.7,5.2c2.9,0,5.8-0.7,8.4-2.1
		c2.6-1.4,4.8-3.4,6.4-5.8c1.6-2.4,2.6-5.2,2.9-8.1c0.3-2.9-0.1-5.8-1.2-8.5c-0.9-2.1-2.2-4.1-3.7-5.9c-1.7-1.6-3.6-2.9-5.8-3.8
		c-2.2-0.9-4.5-1.3-6.8-1.3c-4.7,0.1-9.2,1.9-12.7,5.2L216.9,187.4z"/>
	<path class="st0" d="M72.9,6.2c-0.9,1-1.7,2.1-2.2,3.4c-0.5,1.2-0.8,2.6-0.7,3.9l0.8,61.5c0,1.4,0.3,2.7,0.9,3.9
		c0.5,1.2,1.3,2.4,2.3,3.3c1,1,2.1,1.7,3.4,2.2c1.3,0.5,2.6,0.8,3.9,0.7l41.1-0.6L281,82.5c1.4,0,2.7-0.3,3.9-0.9
		c1.2-0.5,2.4-1.3,3.3-2.3l30.4-31.2c1.9-1.9,2.9-4.6,2.9-7.3c0-2.7-1.2-5.3-3.1-7.2L287.2,3.3c-1-1.1-2.2-1.9-3.5-2.5
		c-1.3-0.6-2.7-0.9-4.2-0.8L121.3,2.6L80.5,2.7c-1.4,0.1-2.7,0.3-4,0.9c-0.6,0.5-1.2,1.1-1.7,1.8c-0.4,0.3-0.7,0.7-1,1L72.9,6.2z
		 M275.9,21l20.8,20.3L276.4,62l-144.1,2l-0.6-41.1L275.9,21z M111.3,23.2l0.6,41.1l-20.5,0.2l-0.6-40.9L111.3,23.2z"/>
</g>
</svg>
