<?xml version="1.0" encoding="utf-8"?>
<!-- Generator: Adobe Illustrator 26.1.0, SVG Export Plug-In . SVG Version: 6.00 Build 0)  -->
<svg version="1.1" id="Layer_1" xmlns="http://www.w3.org/2000/svg" xmlns:xlink="http://www.w3.org/1999/xlink" x="0px" y="0px"
	 viewBox="0 0 1170 810" style="enable-background:new 0 0 1170 810;" xml:space="preserve">
<path d="M1169.8,285.5c2.6-75-14-149.4-48.4-216.3c-23.3-27.5-55.7-46-91.4-52.4C882.1,3.6,733.6-1.8,585.1,0.6
	C437.2-1.9,289.2,3.3,141.8,16.3C112.7,21.5,85.7,35,64.3,55.1C16.4,98.5,11.1,172.9,5.8,235.7c-7.7,113-7.7,226.4,0,339.4
	c1.5,35.4,6.8,70.5,15.9,104.7c6.4,26.5,19.4,50.9,37.7,71.2c21.6,21.2,49.3,35.4,79.2,40.9c114.6,14,230,19.7,345.5,17.3
	c186,2.6,349.2,0,542.1-14.7c30.7-5.1,59.1-19.4,81.3-40.8c14.9-14.7,26-32.6,32.4-52.4c19-57.5,28.3-117.6,27.6-178
	C1169.8,493.9,1169.8,316.9,1169.8,285.5z M465,554.6V230.5l314.6,162.9C691.4,441.5,575,496,465,554.6z"/>
</svg>
